<svg fill="currentColor" xmlns="http://www.w3.org/2000/svg" xmlns:xlink="http://www.w3.org/1999/xlink" preserveAspectRatio="none" version="1.1" id="Layer_1" xml:space="preserve" viewBox="0 176.93 512 158.14">
<g>
	<g>
		<path d="M510.973,260.849c-1.128-2.05-3.068-3.529-5.344-4.071c-8.339-1.987-31.945-8.745-40.917-16.056    c-16.427-13.385-30.472-17.657-36.588-18.968c-20.051-19.495-38.721-15.599-55.256-12.146c-6.675,1.396-12.981,2.711-19.554,2.711    c-8.09,0-23.419-4.861-41.168-10.49c-33.13-10.506-78.504-24.897-126.918-24.897c-27.788,0-50.858,11.176-66.716,32.319    c-18.169,24.225-22.517,54.979-21.725,69.515c-32.232-7.653-72.528-5.775-88.269,5.269C1.477,288.975,0,294.768,0,298.758    c0,8.244,3.342,19.123,19.259,24.13c8.787,2.766,19.802,3.332,33.636,3.332c22.577,0,49.014-4.452,62.806-7.114    c2.363,9.162,10.672,15.961,20.562,15.961h57.811c4.182,0,7.711-3.114,8.23-7.265c0.121-0.971,0.739-6.951-1.317-13.853    c21.413,4.995,54.754,11.788,94.968,12.246c3.863,5.362,10.143,8.872,17.242,8.872h57.811c4.182,0,7.711-3.114,8.23-7.265    c0.167-1.337,1.275-12.17-4.956-21.831c4.734-1.691,10.304-3.774,15.918-6.085c15.535-6.396,24.922-11.731,29.614-17.132    c15.769,2.312,56.123,8.08,66.201,8.08c17.039,0,24.718-20.907,25.537-23.291C512.31,265.33,512.101,262.899,510.973,260.849z     M52.895,309.633c-30.11,0-36.205-3.919-36.307-10.699c0.912-1.492,8.602-6.92,31.261-8.085    c19.328-0.992,40.107,1.691,55.931,7.182c1.257,2.018,2.58,3.926,3.891,5.686C93.689,306.251,71.54,309.633,52.895,309.633z     M136.264,318.479c-1.866,0-3.467-1.107-4.214-2.692l36.195-7.239c6.461,0.114,11.18,1.741,13.994,4.871    c1.373,1.528,2.239,3.321,2.781,5.059H136.264z M313.197,318.479c-1.866,0-3.467-1.107-4.214-2.692l36.195-7.239    c6.461,0.114,11.18,1.741,13.994,4.871c1.373,1.528,2.239,3.321,2.781,5.059H313.197z M406.95,272.297    c-4.338,4.696-26.137,14.396-48.673,21.626c-2.482-0.8-5.16-1.352-8.023-1.668c-2.195-6.046-5.681-17.102-6.356-27.924    c-0.285-4.571-4.22-8.036-8.795-7.761c-4.572,0.285-8.046,4.223-7.761,8.795c0.672,10.746,3.539,21.345,5.956,28.645    l-29.245,5.849L289.44,277.94c-2.541-3.811-7.69-4.84-11.501-2.3c-3.811,2.54-4.841,7.69-2.3,11.501l14.908,22.361    c-41.839-1.091-74.622-8.988-94.776-13.847c-9.612-2.317-15.413-3.716-19.39-3.716c-0.86,0-1.69,0.132-2.47,0.374    c-0.196-0.024-0.398-0.039-0.596-0.06c-2.193-6.026-5.671-17.047-6.35-27.924c-0.285-4.572-4.233-8.036-8.795-7.761    c-4.572,0.285-8.046,4.223-7.761,8.795c0.671,10.747,3.539,21.345,5.956,28.646l-30.23,6.046    c-4.242-4.71-10.489-12.717-12.564-19.835c-1.555-5.535,0.485-37.628,18.431-61.308c12.767-16.846,30.675-25.389,53.225-25.389    c45.848,0,89.807,13.941,121.904,24.12c19.847,6.294,35.525,11.266,46.183,11.266c8.287,0,15.738-1.556,22.946-3.061    c14.138-2.951,24.792-5.178,37.115,4.942C410.156,237.808,407.075,250.27,406.95,272.297z M486.013,274.246    c-7.904,0-42.876-4.857-62.358-7.695c0.536-15.462,2.759-23.701,4.367-27.72c5.392,1.638,14.939,5.567,26.213,14.753    c9.164,7.467,26.232,13.331,37.315,16.582C489.776,272.514,487.786,274.246,486.013,274.246z"/>
	</g>
</g>
<g>
	<g>
		<path d="M384.645,236.924c-5.641,0-10.229,4.588-10.229,10.229c0,5.641,4.588,10.229,10.229,10.229s10.229-4.588,10.229-10.229    C394.874,241.512,390.286,236.924,384.645,236.924z"/>
	</g>
</g>
</svg>